HIERARCHY
ROOT Hips
{
  OFFSET 0 0 0
  CHANNELS 6 Xposition Yposition Zposition Zrotation Yrotation Xrotation
  JOINT LeftThigh
  {
    OFFSET 8.409438 0 -5.917753
    CHANNELS 3 Zrotation Yrotation Xrotation
    JOINT LeftLeg
    {
      OFFSET 0 0 -42.358652
      CHANNELS 3 Zrotation Yrotation Xrotation
      JOINT LeftFoot
      {
        OFFSET 0 0 -39.357303
        CHANNELS 3 Zrotation Yrotation Xrotation
      }
    }
  }
  JOINT RightThigh
  {
    OFFSET -8.409438 0 -5.917753
    CHANNELS 3 Zrotation Yrotation Xrotation
    JOINT RightLeg
    {
      OFFSET 0 0 -42.358652
      CHANNELS 3 Zrotation Yrotation Xrotation
      JOINT RightFoot
      {
        OFFSET 0 0 -39.357303
        CHANNELS 3 Zrotation Yrotation Xrotation
      }
    }
  }
  JOINT SpineLow
  {
    OFFSET 0 0 4.719101
    CHANNELS 3 Zrotation Yrotation Xrotation
    JOINT SpineMid
    {
      OFFSET 0 0 12.899191
      CHANNELS 3 Zrotation Yrotation Xrotation
      JOINT Chest
      {
        OFFSET 0 0 12.899191
        CHANNELS 3 Zrotation Yrotation Xrotation
        JOINT LeftShoulder
        {
          OFFSET 7.550562 1.41573 9.438202
          CHANNELS 3 Zrotation Yrotation Xrotation
          JOINT LeftArm
          {
            OFFSET 9.155056 0 4.247191
            CHANNELS 3 Zrotation Yrotation Xrotation
            JOINT LeftForearm
            {
              OFFSET 0 0 25.771955
              CHANNELS 3 Zrotation Yrotation Xrotation
              JOINT LeftHand
              {
                OFFSET 0 0 25.197169
                CHANNELS 3 Zrotation Yrotation Xrotation
              }
            }
          }
        }
        JOINT RightShoulder
        {
          OFFSET -7.550562 1.41573 9.438202
          CHANNELS 3 Zrotation Yrotation Xrotation
          JOINT RightArm
          {
            OFFSET -9.155056 0 4.247191
            CHANNELS 3 Zrotation Yrotation Xrotation
            JOINT RightForearm
            {
              OFFSET 0 0 -25.771955
              CHANNELS 3 Zrotation Yrotation Xrotation
              JOINT RightHand
              {
                OFFSET 0 0 -25.197169
                CHANNELS 3 Zrotation Yrotation Xrotation
              }
            }
          }
        }
        JOINT Neck
        {
          OFFSET 0 0 15.101124
          CHANNELS 3 Zrotation Yrotation Xrotation
          JOINT Head
          {
            OFFSET 0 0 11.325843
            CHANNELS 3 Zrotation Yrotation Xrotation
            End Site
            {
              OFFSET 0 0 14.157303
            }
          }
        }
      }
    }
  }
}
MOTION
Frames: 7
Frame Time: 0.0
0.0  101.685394  0.0  1.71945  24.727545  -96.191209  4.282993  -20.860911  -0.004138  -13.023817  18.004514  21.344049  -1.371868  3.221671  1.710194  -19.881921  15.473686  0.583328  -3.70181  4.549007  17.721334  -0.723167  2.128805  -2.634115  0.205235  -0.318812  2.271215  0.530528  -0.889813  6.205728  0.530528  -0.889813  6.205728  -8.109268  19.856361  10.734257  148.037502  24.896751  171.158929  -25.686405  25.950223  91.025644  40.412002  -25.403504  2.945635  9.137214  -7.061611  8.70237  114.067801  36.022577  35.067142  -26.89083  -21.159727  -101.076998  51.513532  9.835591  3.372156  -6.584248  -1.455208  -1.142299  -4.940661  -1.079253  -0.87248  
0.0  101.685394  0.0  1.738855  26.232601  -96.091878  3.952241  -20.94802  -0.217536  -13.56411  18.138501  21.015105  -1.655935  3.145849  1.609297  -20.195749  15.548227  0.809388  -4.471859  4.552568  17.629486  -1.066296  2.187347  -2.638437  0.239204  -0.310392  2.284371  0.623902  -0.870128  6.24129  0.623902  -0.870127  6.24129  -9.520754  20.162131  10.579671  147.548477  25.858896  170.729796  -25.523281  26.701617  91.286035  40.859575  -25.747862  0.29584  9.03245  -7.155872  8.206183  115.596933  36.376777  34.493706  -25.851759  -22.685687  -103.637491  48.255456  11.666434  4.385097  -7.55744  -1.682183  -1.300937  -5.671284  -1.245783  -0.996622  
0.0  101.685394  0.0  1.901751  28.1869  -95.833442  3.185341  -20.848795  -0.550247  -14.000534  18.26426  20.753244  -1.95354  3.079178  1.492802  -20.944199  15.768808  0.916278  -5.206278  4.512261  17.526838  -1.352209  2.262494  -2.624058  0.182125  -0.28608  2.278901  0.470392  -0.798318  6.22723  0.470392  -0.798318  6.22723  -10.639458  20.416341  10.364924  146.775904  26.738469  170.267957  -25.454827  27.380669  91.421895  41.860661  -26.142446  -2.475626  9.398656  -7.246652  7.852928  116.820922  36.895618  33.962759  -24.886082  -23.679847  -105.95052  45.525869  13.318686  5.498358  -8.41316  -1.878464  -1.417873  -6.313702  -1.389651  -1.089424  
0.0  101.685394  0.0  1.991879  30.203943  -95.598346  2.3661  -20.84754  -0.964733  -14.287187  18.386355  20.621401  -2.308321  3.035238  1.365705  -21.784385  15.903553  1.011639  -6.034362  4.496736  17.427341  -1.616805  2.340999  -2.617001  0.178626  -0.283051  2.293907  0.46094  -0.789819  6.268311  0.46094  -0.789819  6.268311  -12.169246  20.734984  10.018841  145.815302  27.788522  169.786178  -25.405206  27.886623  91.556308  42.815314  -26.216559  -4.756541  9.441574  -7.322164  7.33211  118.069631  37.394906  33.472025  -24.156144  -24.340265  -107.973334  43.577905  14.551368  6.69434  -9.542258  -2.082515  -1.626938  -7.161509  -1.536941  -1.252963  
0.0  101.685394  0.0  2.085848  32.382727  -95.313647  1.426406  -20.845746  -1.417089  -14.620474  18.542494  20.427895  -2.694496  2.996962  1.239276  -22.608551  15.991233  1.122511  -6.883475  4.506073  17.363686  -1.852826  2.422409  -2.625709  0.100185  -0.269952  2.278962  0.248154  -0.746569  6.228427  0.248154  -0.746569  6.228428  -13.123643  21.052113  9.866664  144.597684  28.82435  169.248142  -25.494919  28.138231  91.611457  43.186151  -26.206356  -6.612268  10.062016  -7.451297  7.063121  119.19088  38.018128  33.132224  -23.679684  -24.730916  -109.722605  42.286772  15.385654  7.887313  -10.45023  -2.279444  -1.711325  -7.843094  -1.680919  -1.322784  
0.0  101.685394  0.0  2.218943  34.604367  -94.979283  0.325811  -20.809594  -2.004015  -14.720604  18.712661  20.445171  -2.97912  3.002884  1.14535  -23.152803  16.078696  1.31342  -8.194955  4.540422  17.245416  -2.04835  2.507931  -2.632318  0.070806  -0.252221  2.272742  0.169663  -0.695371  6.211778  0.169663  -0.695371  6.211778  -14.453222  21.384799  9.689701  143.039237  30.021024  168.618565  -25.697361  28.263217  91.646928  43.479573  -26.226718  -8.235852  10.363069  -7.6563  6.65396  120.357911  38.580256  32.929174  -23.540724  -24.787738  -111.104263  41.296668  15.908061  8.74469  -11.616705  -2.512214  -1.829415  -8.718744  -1.850199  -1.420238  
0.0  101.685394  0.0  2.237722  36.559651  -94.697319  -0.515847  -20.93349  -2.498609  -14.881136  18.90158  20.357144  -3.347798  2.983136  0.958192  -23.728803  16.015419  1.3809  -8.978714  4.535826  17.246334  -2.274658  2.604522  -2.625676  0.052475  -0.256262  2.239457  0.119582  -0.704633  6.120985  0.119582  -0.704633  6.120985  -15.286354  21.888197  9.825817  141.43907  31.300194  167.933234  -25.820931  28.316626  91.714698  43.861859  -26.085561  -9.548036  10.98324  -7.812962  6.601036  121.506683  39.284114  33.006792  -23.70346  -24.616841  -112.207562  40.541896  16.1364  9.168499  -12.64603  -2.69806  -1.822948  -9.490915  -1.986854  -1.423559  
